<?xml version="1.0" encoding="UTF-8"?>
<svg xmlns="http://www.w3.org/2000/svg" xmlns:xlink="http://www.w3.org/1999/xlink" width="1920" height="1080" viewBox="0 0 1920 1080">
<defs>
<g>
<g id="glyph-0-0">
<path d="M 2.570312 -1.746094 L 1.699219 -1.746094 L 1.699219 -1.972656 L 2.570312 -1.972656 Z M 2.726562 -0.535156 L 2.445312 -0.535156 L 2.445312 -2.84375 L 2.726562 -2.84375 Z M 2.8125 0.21875 L 0.710938 0.21875 L 0.710938 -0.015625 L 2.8125 -0.015625 Z M 0.992188 0.0820312 L 0.710938 0.0820312 L 0.710938 -0.773438 L 0.992188 -0.773438 Z M 0.992188 -2.644531 C 1.144531 -2.644531 1.28125 -2.613281 1.402344 -2.546875 C 1.523438 -2.480469 1.621094 -2.390625 1.695312 -2.273438 C 1.765625 -2.15625 1.800781 -2.023438 1.800781 -1.871094 C 1.800781 -1.722656 1.765625 -1.589844 1.695312 -1.472656 C 1.621094 -1.355469 1.527344 -1.265625 1.402344 -1.195312 C 1.28125 -1.128906 1.144531 -1.097656 0.992188 -1.097656 C 0.835938 -1.097656 0.695312 -1.128906 0.574219 -1.195312 C 0.449219 -1.261719 0.351562 -1.351562 0.28125 -1.472656 C 0.210938 -1.589844 0.175781 -1.722656 0.175781 -1.871094 C 0.175781 -2.023438 0.210938 -2.15625 0.28125 -2.273438 C 0.351562 -2.390625 0.449219 -2.484375 0.574219 -2.546875 C 0.695312 -2.613281 0.835938 -2.644531 0.992188 -2.644531 Z M 0.992188 -2.402344 C 0.886719 -2.402344 0.792969 -2.378906 0.710938 -2.332031 C 0.628906 -2.285156 0.5625 -2.222656 0.511719 -2.144531 C 0.464844 -2.0625 0.441406 -1.972656 0.441406 -1.871094 C 0.441406 -1.769531 0.464844 -1.679688 0.511719 -1.597656 C 0.5625 -1.515625 0.628906 -1.453125 0.710938 -1.410156 C 0.792969 -1.363281 0.886719 -1.339844 0.992188 -1.335938 C 1.09375 -1.339844 1.183594 -1.363281 1.265625 -1.410156 C 1.351562 -1.453125 1.417969 -1.519531 1.464844 -1.597656 C 1.511719 -1.679688 1.535156 -1.769531 1.535156 -1.871094 C 1.535156 -1.972656 1.511719 -2.0625 1.464844 -2.144531 C 1.417969 -2.222656 1.351562 -2.285156 1.265625 -2.332031 C 1.183594 -2.378906 1.09375 -2.402344 0.992188 -2.402344 Z "/>
</g>
<g id="glyph-0-1">
<path d="M 0.96875 -2.605469 C 1.121094 -2.605469 1.257812 -2.558594 1.375 -2.46875 C 1.492188 -2.378906 1.585938 -2.25 1.652344 -2.085938 C 1.71875 -1.921875 1.753906 -1.730469 1.753906 -1.511719 C 1.753906 -1.292969 1.71875 -1.101562 1.652344 -0.9375 C 1.585938 -0.773438 1.492188 -0.644531 1.375 -0.558594 C 1.257812 -0.46875 1.121094 -0.421875 0.96875 -0.421875 C 0.816406 -0.421875 0.679688 -0.46875 0.5625 -0.558594 C 0.445312 -0.648438 0.351562 -0.773438 0.285156 -0.9375 C 0.21875 -1.101562 0.183594 -1.292969 0.183594 -1.511719 C 0.183594 -1.730469 0.21875 -1.921875 0.285156 -2.085938 C 0.351562 -2.25 0.445312 -2.378906 0.5625 -2.46875 C 0.679688 -2.558594 0.816406 -2.605469 0.96875 -2.605469 Z M 0.96875 -2.359375 C 0.867188 -2.359375 0.777344 -2.324219 0.699219 -2.253906 C 0.617188 -2.183594 0.554688 -2.082031 0.511719 -1.957031 C 0.46875 -1.828125 0.449219 -1.683594 0.449219 -1.511719 C 0.449219 -1.34375 0.46875 -1.199219 0.511719 -1.070312 C 0.554688 -0.941406 0.617188 -0.84375 0.699219 -0.773438 C 0.777344 -0.703125 0.867188 -0.667969 0.96875 -0.667969 C 1.070312 -0.667969 1.160156 -0.703125 1.242188 -0.773438 C 1.320312 -0.84375 1.382812 -0.941406 1.425781 -1.070312 C 1.46875 -1.199219 1.492188 -1.34375 1.492188 -1.511719 C 1.492188 -1.679688 1.46875 -1.828125 1.425781 -1.957031 C 1.382812 -2.082031 1.320312 -2.183594 1.242188 -2.253906 C 1.164062 -2.324219 1.074219 -2.359375 0.96875 -2.359375 Z M 2.726562 0.292969 L 2.449219 0.292969 L 2.449219 -2.847656 L 2.726562 -2.847656 Z M 2.574219 -1.421875 L 1.660156 -1.421875 L 1.660156 -1.648438 L 2.574219 -1.648438 Z "/>
</g>
<g id="glyph-0-2">
<rect x="0" y="0" width="0" height="0" mask="url(#mask-0)"/>
</g>
<g id="glyph-0-3">
<path d="M 1.207031 -0.25 L 0.925781 -0.25 L 0.925781 -1.152344 L 1.207031 -1.152344 Z M 2.175781 -0.25 L 1.898438 -0.25 L 1.898438 -1.152344 L 2.175781 -1.152344 Z M 2.996094 -0.0976562 L 0.125 -0.0976562 L 0.125 -0.328125 L 2.996094 -0.328125 Z M 2.722656 -2.328125 L 0.378906 -2.328125 L 0.378906 -2.554688 L 2.722656 -2.554688 Z M 2.714844 -1.074219 L 0.386719 -1.074219 L 0.386719 -1.304688 L 2.714844 -1.304688 Z M 1.152344 -1.253906 L 0.878906 -1.253906 L 0.878906 -2.371094 L 1.152344 -2.371094 Z M 2.226562 -1.253906 L 1.953125 -1.253906 L 1.953125 -2.371094 L 2.226562 -2.371094 Z "/>
</g>
<g id="glyph-0-4">
<path d="M 2.726562 -0.453125 L 2.445312 -0.453125 L 2.445312 -2.84375 L 2.726562 -2.84375 Z M 2.5625 -1.78125 L 1.902344 -1.78125 L 1.902344 -2.007812 L 2.5625 -2.007812 Z M 2.5625 -1.128906 L 1.902344 -1.128906 L 1.902344 -1.355469 L 2.5625 -1.355469 Z M 1.902344 -2.234375 L 0.128906 -2.234375 L 0.128906 -2.460938 L 1.902344 -2.460938 Z M 1.027344 -2.0625 C 1.164062 -2.0625 1.289062 -2.039062 1.398438 -1.988281 C 1.507812 -1.9375 1.59375 -1.871094 1.652344 -1.777344 C 1.710938 -1.6875 1.742188 -1.582031 1.742188 -1.464844 C 1.742188 -1.347656 1.710938 -1.242188 1.652344 -1.152344 C 1.59375 -1.0625 1.507812 -0.988281 1.398438 -0.941406 C 1.289062 -0.890625 1.164062 -0.863281 1.027344 -0.863281 C 0.886719 -0.863281 0.765625 -0.890625 0.65625 -0.941406 C 0.550781 -0.992188 0.46875 -1.0625 0.40625 -1.152344 C 0.347656 -1.242188 0.316406 -1.34375 0.316406 -1.464844 C 0.316406 -1.582031 0.347656 -1.6875 0.40625 -1.777344 C 0.46875 -1.867188 0.550781 -1.9375 0.65625 -1.988281 C 0.765625 -2.039062 0.886719 -2.0625 1.027344 -2.0625 Z M 1.027344 -1.84375 C 0.941406 -1.84375 0.859375 -1.828125 0.792969 -1.796875 C 0.722656 -1.765625 0.667969 -1.71875 0.632812 -1.664062 C 0.59375 -1.605469 0.574219 -1.539062 0.574219 -1.464844 C 0.574219 -1.390625 0.59375 -1.324219 0.632812 -1.265625 C 0.667969 -1.210938 0.722656 -1.164062 0.792969 -1.132812 C 0.863281 -1.101562 0.9375 -1.085938 1.027344 -1.085938 C 1.117188 -1.085938 1.195312 -1.101562 1.261719 -1.132812 C 1.332031 -1.164062 1.382812 -1.210938 1.421875 -1.265625 C 1.460938 -1.324219 1.480469 -1.390625 1.480469 -1.464844 C 1.480469 -1.539062 1.460938 -1.605469 1.421875 -1.664062 C 1.382812 -1.71875 1.332031 -1.765625 1.261719 -1.796875 C 1.195312 -1.828125 1.117188 -1.84375 1.027344 -1.84375 Z M 1.167969 -2.316406 L 0.890625 -2.316406 L 0.890625 -2.847656 L 1.167969 -2.847656 Z M 2.796875 0.21875 L 0.699219 0.21875 L 0.699219 -0.015625 L 2.796875 -0.015625 Z M 0.976562 0.0976562 L 0.699219 0.0976562 L 0.699219 -0.667969 L 0.976562 -0.667969 Z "/>
</g>
<g id="glyph-0-5">
<path d="M 1.6875 -0.640625 L 1.417969 -0.640625 L 1.417969 -1.1875 L 1.6875 -1.1875 Z M 2.984375 -1.105469 L 0.125 -1.105469 L 0.125 -1.332031 L 2.984375 -1.332031 Z M 2.710938 -2.515625 L 0.394531 -2.515625 L 0.394531 -2.746094 L 2.710938 -2.746094 Z M 2.699219 -1.628906 L 0.40625 -1.628906 L 0.40625 -1.859375 L 2.699219 -1.859375 Z M 1.152344 -1.699219 L 0.878906 -1.699219 L 0.878906 -2.644531 L 1.152344 -2.644531 Z M 2.226562 -1.699219 L 1.953125 -1.699219 L 1.953125 -2.644531 L 2.226562 -2.644531 Z M 2.632812 0.242188 L 0.476562 0.242188 L 0.476562 -0.734375 L 2.632812 -0.734375 Z M 0.75 0.0195312 L 2.363281 0.0195312 L 2.363281 -0.515625 L 0.75 -0.515625 Z "/>
</g>
<g id="glyph-0-6">
<path d="M 2.710938 -1.21875 L 2.441406 -1.21875 L 2.441406 -2.847656 L 2.710938 -2.847656 Z M 2.714844 -0.320312 L 0.957031 -0.320312 L 0.957031 0.128906 L 0.683594 0.128906 L 0.683594 -0.527344 L 2.441406 -0.527344 L 2.441406 -0.851562 L 0.675781 -0.851562 L 0.675781 -1.066406 L 2.714844 -1.066406 Z M 2.828125 0.25 L 0.683594 0.25 L 0.683594 0.0273438 L 2.828125 0.0273438 Z M 1.203125 -2.40625 C 1.203125 -2.222656 1.164062 -2.054688 1.089844 -1.894531 C 1.015625 -1.734375 0.910156 -1.597656 0.773438 -1.480469 C 0.636719 -1.363281 0.480469 -1.273438 0.304688 -1.214844 L 0.171875 -1.433594 C 0.328125 -1.484375 0.46875 -1.5625 0.589844 -1.660156 C 0.710938 -1.757812 0.804688 -1.871094 0.875 -2 C 0.941406 -2.128906 0.976562 -2.261719 0.976562 -2.40625 L 0.976562 -2.574219 L 1.203125 -2.574219 Z M 1.253906 -2.40625 C 1.253906 -2.269531 1.289062 -2.144531 1.355469 -2.023438 C 1.425781 -1.902344 1.519531 -1.796875 1.644531 -1.703125 C 1.765625 -1.613281 1.90625 -1.546875 2.0625 -1.5 L 1.925781 -1.285156 C 1.75 -1.339844 1.597656 -1.421875 1.460938 -1.53125 C 1.324219 -1.640625 1.222656 -1.769531 1.144531 -1.921875 C 1.070312 -2.070312 1.03125 -2.234375 1.03125 -2.40625 L 1.03125 -2.574219 L 1.253906 -2.574219 Z M 1.976562 -2.441406 L 0.242188 -2.441406 L 0.242188 -2.667969 L 1.976562 -2.667969 Z "/>
</g>
</g>
<image id="source-169" x="0" y="0" width="0" height="0"/>
<mask id="mask-0">
<use xlink:href="#source-169"/>
</mask>
</defs>
<g fill="rgb(5.882353%, 9.019608%, 16.470588%)" fill-opacity="1">
<use xlink:href="#glyph-0-0" x="30" y="23.4375"/>
<use xlink:href="#glyph-0-1" x="33" y="23.4375"/>
<use xlink:href="#glyph-0-2" x="36" y="23.4375"/>
<use xlink:href="#glyph-0-3" x="37" y="23.4375"/>
<use xlink:href="#glyph-0-4" x="40" y="23.4375"/>
<use xlink:href="#glyph-0-2" x="43" y="23.4375"/>
<use xlink:href="#glyph-0-5" x="44" y="23.4375"/>
<use xlink:href="#glyph-0-6" x="47" y="23.4375"/>
</g>
</svg>
