<?xml version="1.0" encoding="UTF-8"?>
<svg xmlns="http://www.w3.org/2000/svg" xmlns:xlink="http://www.w3.org/1999/xlink" width="1920" height="1080" viewBox="0 0 1920 1080">
<defs>
<g>
<g id="glyph-0-0">
<path d="M 1.238281 -2.34375 C 1.238281 -2.152344 1.199219 -1.96875 1.117188 -1.800781 C 1.039062 -1.632812 0.929688 -1.484375 0.785156 -1.359375 C 0.644531 -1.234375 0.480469 -1.140625 0.292969 -1.078125 L 0.148438 -1.308594 C 0.3125 -1.363281 0.460938 -1.441406 0.589844 -1.546875 C 0.71875 -1.652344 0.816406 -1.773438 0.890625 -1.914062 C 0.960938 -2.050781 0.996094 -2.195312 0.996094 -2.34375 L 0.996094 -2.492188 L 1.238281 -2.492188 Z M 1.289062 -2.34375 C 1.289062 -2.207031 1.324219 -2.074219 1.398438 -1.949219 C 1.472656 -1.820312 1.578125 -1.710938 1.707031 -1.617188 C 1.835938 -1.523438 1.984375 -1.449219 2.148438 -1.398438 L 2.003906 -1.167969 C 1.816406 -1.222656 1.652344 -1.308594 1.507812 -1.421875 C 1.363281 -1.539062 1.25 -1.675781 1.167969 -1.835938 C 1.085938 -1.996094 1.042969 -2.164062 1.042969 -2.34375 L 1.042969 -2.492188 L 1.289062 -2.492188 Z M 2.050781 -2.414062 L 0.230469 -2.414062 L 0.230469 -2.65625 L 2.050781 -2.65625 Z M 1.296875 -2.570312 L 0.996094 -2.570312 L 0.996094 -3.085938 L 1.296875 -3.085938 Z M 2.722656 -1.855469 L 1.945312 -1.855469 L 1.945312 -2.101562 L 2.722656 -2.101562 Z M 2.9375 -1.023438 L 2.636719 -1.023438 L 2.636719 -3.070312 L 2.9375 -3.070312 Z M 1.816406 -0.929688 C 2.050781 -0.929688 2.253906 -0.90625 2.421875 -0.859375 C 2.59375 -0.8125 2.722656 -0.742188 2.8125 -0.648438 C 2.902344 -0.558594 2.949219 -0.445312 2.949219 -0.316406 C 2.949219 -0.1875 2.902344 -0.0742188 2.8125 0.015625 C 2.722656 0.109375 2.59375 0.179688 2.421875 0.226562 C 2.253906 0.277344 2.050781 0.300781 1.816406 0.300781 C 1.582031 0.300781 1.382812 0.277344 1.210938 0.226562 C 1.042969 0.179688 0.910156 0.109375 0.820312 0.015625 C 0.730469 -0.0742188 0.683594 -0.1875 0.683594 -0.316406 C 0.683594 -0.449219 0.730469 -0.558594 0.820312 -0.648438 C 0.910156 -0.742188 1.042969 -0.808594 1.210938 -0.859375 C 1.382812 -0.90625 1.582031 -0.929688 1.816406 -0.929688 Z M 1.816406 -0.699219 C 1.644531 -0.699219 1.496094 -0.683594 1.371094 -0.652344 C 1.246094 -0.621094 1.148438 -0.578125 1.082031 -0.519531 C 1.015625 -0.460938 0.980469 -0.394531 0.980469 -0.316406 C 0.980469 -0.238281 1.011719 -0.171875 1.082031 -0.113281 C 1.148438 -0.0546875 1.246094 -0.0117188 1.371094 0.0195312 C 1.496094 0.0507812 1.644531 0.0664062 1.816406 0.0664062 C 1.988281 0.0664062 2.136719 0.0507812 2.261719 0.0195312 C 2.386719 -0.0117188 2.484375 -0.0546875 2.550781 -0.113281 C 2.617188 -0.167969 2.652344 -0.238281 2.652344 -0.316406 C 2.652344 -0.394531 2.617188 -0.460938 2.550781 -0.519531 C 2.484375 -0.578125 2.390625 -0.621094 2.265625 -0.652344 C 2.140625 -0.683594 1.992188 -0.699219 1.816406 -0.699219 Z "/>
</g>
<g id="glyph-0-1">
<path d="M 2.667969 -2.472656 L 0.507812 -2.472656 L 0.507812 -2.722656 L 2.667969 -2.722656 Z M 3.214844 -0.167969 L 0.136719 -0.167969 L 0.136719 -0.417969 L 3.214844 -0.417969 Z M 2.828125 -2.304688 C 2.828125 -2.085938 2.828125 -1.90625 2.824219 -1.757812 C 2.820312 -1.609375 2.808594 -1.445312 2.789062 -1.261719 C 2.769531 -1.078125 2.734375 -0.878906 2.6875 -0.664062 L 2.390625 -0.691406 C 2.433594 -0.890625 2.46875 -1.082031 2.488281 -1.261719 C 2.511719 -1.445312 2.523438 -1.605469 2.53125 -1.75 C 2.539062 -1.894531 2.542969 -2.082031 2.542969 -2.304688 L 2.542969 -2.722656 L 2.828125 -2.722656 Z M 0.460938 -1.445312 L 0.417969 -1.695312 L 2.617188 -1.785156 L 2.617188 -1.566406 Z "/>
</g>
<g id="glyph-0-2">
<rect x="0" y="0" width="0" height="0" mask="url(#mask-0)"/>
</g>
<g id="glyph-0-3">
<path d="M 0.253906 -0.25 L 1.191406 -1.238281 C 1.316406 -1.371094 1.410156 -1.476562 1.476562 -1.554688 C 1.542969 -1.636719 1.59375 -1.714844 1.625 -1.789062 C 1.660156 -1.863281 1.675781 -1.945312 1.675781 -2.023438 C 1.675781 -2.117188 1.652344 -2.195312 1.601562 -2.269531 C 1.554688 -2.339844 1.488281 -2.394531 1.40625 -2.433594 C 1.324219 -2.472656 1.230469 -2.492188 1.128906 -2.492188 C 1.023438 -2.492188 0.929688 -2.46875 0.847656 -2.425781 C 0.765625 -2.382812 0.703125 -2.324219 0.660156 -2.246094 C 0.613281 -2.167969 0.59375 -2.078125 0.59375 -1.976562 L 0.269531 -1.976562 C 0.269531 -2.136719 0.308594 -2.277344 0.382812 -2.398438 C 0.457031 -2.519531 0.558594 -2.617188 0.691406 -2.683594 C 0.824219 -2.753906 0.976562 -2.789062 1.140625 -2.789062 C 1.304688 -2.789062 1.449219 -2.753906 1.582031 -2.6875 C 1.710938 -2.621094 1.8125 -2.527344 1.882812 -2.410156 C 1.957031 -2.296875 1.996094 -2.167969 1.996094 -2.023438 C 1.996094 -1.921875 1.976562 -1.820312 1.9375 -1.722656 C 1.898438 -1.628906 1.835938 -1.523438 1.746094 -1.40625 C 1.660156 -1.292969 1.53125 -1.148438 1.363281 -0.976562 L 0.734375 -0.328125 L 0.734375 -0.304688 L 2.042969 -0.304688 L 2.042969 0 L 0.257812 0 Z "/>
</g>
<g id="glyph-0-4">
<path d="M 1.160156 0.0390625 C 0.957031 0.0390625 0.78125 -0.015625 0.640625 -0.128906 C 0.496094 -0.238281 0.386719 -0.398438 0.3125 -0.609375 C 0.234375 -0.820312 0.199219 -1.078125 0.199219 -1.375 C 0.199219 -1.671875 0.234375 -1.925781 0.3125 -2.136719 C 0.386719 -2.347656 0.496094 -2.507812 0.640625 -2.621094 C 0.785156 -2.734375 0.957031 -2.789062 1.160156 -2.789062 C 1.359375 -2.789062 1.53125 -2.730469 1.675781 -2.621094 C 1.820312 -2.507812 1.929688 -2.347656 2.003906 -2.136719 C 2.082031 -1.925781 2.121094 -1.671875 2.121094 -1.375 C 2.121094 -1.078125 2.082031 -0.820312 2.007812 -0.609375 C 1.933594 -0.398438 1.824219 -0.238281 1.679688 -0.128906 C 1.535156 -0.0195312 1.359375 0.0390625 1.160156 0.0390625 Z M 1.160156 -0.265625 C 1.289062 -0.265625 1.402344 -0.308594 1.496094 -0.394531 C 1.589844 -0.480469 1.660156 -0.605469 1.710938 -0.773438 C 1.761719 -0.9375 1.785156 -1.140625 1.785156 -1.375 C 1.785156 -1.609375 1.761719 -1.8125 1.710938 -1.980469 C 1.660156 -2.148438 1.589844 -2.273438 1.496094 -2.359375 C 1.402344 -2.449219 1.289062 -2.492188 1.160156 -2.492188 C 1.027344 -2.492188 0.914062 -2.449219 0.820312 -2.359375 C 0.726562 -2.273438 0.65625 -2.144531 0.605469 -1.980469 C 0.554688 -1.8125 0.527344 -1.609375 0.527344 -1.375 C 0.527344 -1.140625 0.550781 -0.9375 0.601562 -0.773438 C 0.652344 -0.605469 0.722656 -0.480469 0.820312 -0.394531 C 0.914062 -0.308594 1.027344 -0.265625 1.160156 -0.265625 Z "/>
</g>
<g id="glyph-0-5">
<path d="M 0.492188 -0.363281 C 0.449219 -0.363281 0.410156 -0.375 0.371094 -0.398438 C 0.332031 -0.421875 0.304688 -0.453125 0.28125 -0.488281 C 0.261719 -0.527344 0.25 -0.570312 0.25 -0.613281 C 0.25 -0.65625 0.261719 -0.695312 0.28125 -0.734375 C 0.304688 -0.773438 0.335938 -0.800781 0.371094 -0.824219 C 0.410156 -0.84375 0.449219 -0.855469 0.492188 -0.855469 C 0.535156 -0.855469 0.578125 -0.84375 0.617188 -0.824219 C 0.652344 -0.800781 0.683594 -0.769531 0.703125 -0.734375 C 0.726562 -0.695312 0.738281 -0.65625 0.738281 -0.613281 C 0.738281 -0.570312 0.726562 -0.527344 0.703125 -0.488281 C 0.683594 -0.453125 0.652344 -0.421875 0.617188 -0.398438 C 0.578125 -0.375 0.535156 -0.363281 0.492188 -0.363281 Z M 0.492188 -1.890625 C 0.449219 -1.890625 0.410156 -1.902344 0.371094 -1.925781 C 0.332031 -1.949219 0.304688 -1.980469 0.28125 -2.015625 C 0.261719 -2.054688 0.25 -2.09375 0.25 -2.136719 C 0.25 -2.179688 0.261719 -2.222656 0.28125 -2.261719 C 0.304688 -2.296875 0.335938 -2.328125 0.371094 -2.347656 C 0.410156 -2.371094 0.449219 -2.382812 0.492188 -2.382812 C 0.535156 -2.382812 0.578125 -2.371094 0.617188 -2.347656 C 0.652344 -2.328125 0.683594 -2.296875 0.703125 -2.261719 C 0.726562 -2.222656 0.738281 -2.179688 0.738281 -2.136719 C 0.738281 -2.09375 0.726562 -2.054688 0.703125 -2.015625 C 0.683594 -1.980469 0.652344 -1.949219 0.617188 -1.925781 C 0.578125 -1.902344 0.535156 -1.890625 0.492188 -1.890625 Z "/>
</g>
<g id="glyph-0-6">
<path d="M 1.15625 0.0390625 C 0.992188 0.0390625 0.84375 0.0078125 0.710938 -0.0585938 C 0.578125 -0.121094 0.46875 -0.207031 0.390625 -0.316406 C 0.3125 -0.425781 0.269531 -0.550781 0.261719 -0.691406 L 0.59375 -0.691406 C 0.601562 -0.609375 0.632812 -0.539062 0.6875 -0.472656 C 0.738281 -0.410156 0.804688 -0.355469 0.886719 -0.320312 C 0.96875 -0.28125 1.058594 -0.261719 1.15625 -0.261719 C 1.273438 -0.261719 1.375 -0.289062 1.46875 -0.34375 C 1.5625 -0.394531 1.636719 -0.46875 1.691406 -0.558594 C 1.742188 -0.652344 1.769531 -0.757812 1.769531 -0.871094 C 1.769531 -0.988281 1.742188 -1.09375 1.6875 -1.1875 C 1.632812 -1.28125 1.558594 -1.355469 1.460938 -1.410156 C 1.363281 -1.464844 1.253906 -1.492188 1.132812 -1.492188 C 1.011719 -1.496094 0.910156 -1.476562 0.824219 -1.4375 C 0.738281 -1.398438 0.667969 -1.335938 0.621094 -1.246094 L 0.289062 -1.246094 L 0.480469 -2.75 L 1.972656 -2.75 L 1.972656 -2.445312 L 0.765625 -2.445312 L 0.664062 -1.640625 L 0.691406 -1.640625 C 0.753906 -1.6875 0.832031 -1.726562 0.917969 -1.757812 C 1.007812 -1.785156 1.097656 -1.800781 1.191406 -1.800781 C 1.363281 -1.800781 1.519531 -1.761719 1.660156 -1.683594 C 1.800781 -1.605469 1.90625 -1.496094 1.988281 -1.355469 C 2.066406 -1.214844 2.105469 -1.054688 2.105469 -0.878906 C 2.105469 -0.703125 2.0625 -0.546875 1.980469 -0.40625 C 1.898438 -0.265625 1.785156 -0.160156 1.640625 -0.078125 C 1.496094 0 1.335938 0.0390625 1.15625 0.0390625 Z "/>
</g>
<g id="glyph-0-7">
<path d="M 0.367188 -1.417969 C 0.429688 -1.488281 0.496094 -1.542969 0.570312 -1.578125 C 0.644531 -1.613281 0.726562 -1.632812 0.808594 -1.632812 C 0.871094 -1.632812 0.933594 -1.625 0.996094 -1.605469 C 1.054688 -1.589844 1.132812 -1.5625 1.230469 -1.523438 C 1.320312 -1.488281 1.394531 -1.460938 1.453125 -1.441406 C 1.515625 -1.421875 1.578125 -1.414062 1.636719 -1.414062 C 1.722656 -1.414062 1.804688 -1.433594 1.875 -1.472656 C 1.949219 -1.515625 2.015625 -1.574219 2.070312 -1.652344 L 2.070312 -1.335938 C 2.007812 -1.265625 1.941406 -1.210938 1.867188 -1.175781 C 1.792969 -1.140625 1.714844 -1.121094 1.628906 -1.121094 C 1.566406 -1.121094 1.503906 -1.128906 1.445312 -1.148438 C 1.382812 -1.167969 1.304688 -1.195312 1.207031 -1.230469 C 1.121094 -1.269531 1.046875 -1.296875 0.984375 -1.3125 C 0.921875 -1.332031 0.859375 -1.339844 0.796875 -1.339844 C 0.714844 -1.339844 0.636719 -1.320312 0.5625 -1.28125 C 0.492188 -1.238281 0.425781 -1.179688 0.367188 -1.101562 Z "/>
</g>
</g>
<image id="source-92" x="0" y="0" width="0" height="0"/>
<mask id="mask-0">
<use xlink:href="#source-92"/>
</mask>
</defs>
<g fill="rgb(5.882353%, 9.019608%, 16.470588%)" fill-opacity="1">
<use xlink:href="#glyph-0-0" x="30" y="23.703125"/>
<use xlink:href="#glyph-0-1" x="33" y="23.703125"/>
<use xlink:href="#glyph-0-2" x="36" y="23.703125"/>
<use xlink:href="#glyph-0-3" x="37" y="23.703125"/>
<use xlink:href="#glyph-0-2" x="39" y="23.703125"/>
</g>
<g fill="rgb(5.882353%, 9.019608%, 16.470588%)" fill-opacity="1">
<use xlink:href="#glyph-0-4" x="30" y="27.496094"/>
<use xlink:href="#glyph-0-4" x="32" y="27.496094"/>
<use xlink:href="#glyph-0-5" x="34" y="27.496094"/>
<use xlink:href="#glyph-0-3" x="35" y="27.496094"/>
<use xlink:href="#glyph-0-6" x="37" y="27.496094"/>
<use xlink:href="#glyph-0-7" x="39" y="27.496094"/>
<use xlink:href="#glyph-0-4" x="41" y="27.496094"/>
<use xlink:href="#glyph-0-4" x="43" y="27.496094"/>
<use xlink:href="#glyph-0-5" x="45" y="27.496094"/>
<use xlink:href="#glyph-0-6" x="46" y="27.496094"/>
<use xlink:href="#glyph-0-6" x="48" y="27.496094"/>
</g>
</svg>
