<?xml version="1.0" encoding="UTF-8"?>
<svg xmlns="http://www.w3.org/2000/svg" xmlns:xlink="http://www.w3.org/1999/xlink" width="1920" height="1080" viewBox="0 0 1920 1080">
<defs>
<g>
<g id="glyph-0-0">
<path d="M 0.25 -2.945312 L 0.859375 -2.945312 L 0.859375 -0.503906 L 2.128906 -0.503906 L 2.128906 0 L 0.25 0 Z "/>
</g>
<g id="glyph-0-1">
<path d="M 1.53125 -0.953125 C 1.476562 -0.953125 1.382812 -0.949219 1.246094 -0.9375 L 1.050781 -0.921875 C 0.945312 -0.914062 0.859375 -0.882812 0.796875 -0.835938 C 0.738281 -0.785156 0.707031 -0.71875 0.707031 -0.636719 C 0.707031 -0.582031 0.722656 -0.535156 0.75 -0.496094 C 0.777344 -0.457031 0.816406 -0.429688 0.867188 -0.410156 C 0.917969 -0.386719 0.972656 -0.378906 1.039062 -0.378906 C 1.128906 -0.378906 1.207031 -0.394531 1.28125 -0.433594 C 1.351562 -0.46875 1.40625 -0.519531 1.445312 -0.582031 C 1.484375 -0.644531 1.503906 -0.714844 1.503906 -0.789062 L 1.5 -1.503906 C 1.5 -1.566406 1.488281 -1.621094 1.460938 -1.664062 C 1.433594 -1.707031 1.394531 -1.742188 1.339844 -1.761719 C 1.285156 -1.785156 1.222656 -1.796875 1.148438 -1.796875 C 1.046875 -1.796875 0.964844 -1.777344 0.902344 -1.734375 C 0.839844 -1.691406 0.796875 -1.628906 0.78125 -1.554688 L 0.207031 -1.554688 C 0.222656 -1.683594 0.265625 -1.800781 0.34375 -1.902344 C 0.421875 -2.007812 0.53125 -2.089844 0.671875 -2.148438 C 0.808594 -2.207031 0.972656 -2.238281 1.164062 -2.238281 C 1.335938 -2.238281 1.492188 -2.210938 1.632812 -2.160156 C 1.773438 -2.105469 1.886719 -2.023438 1.972656 -1.910156 C 2.058594 -1.800781 2.101562 -1.660156 2.101562 -1.488281 L 2.101562 0 L 1.53125 0 L 1.53125 -0.304688 L 1.511719 -0.304688 C 1.476562 -0.234375 1.429688 -0.175781 1.371094 -0.125 C 1.3125 -0.0742188 1.238281 -0.03125 1.15625 -0.00390625 C 1.070312 0.0273438 0.972656 0.0429688 0.867188 0.0429688 C 0.722656 0.0429688 0.597656 0.015625 0.488281 -0.0351562 C 0.378906 -0.0859375 0.289062 -0.160156 0.226562 -0.257812 C 0.164062 -0.359375 0.132812 -0.476562 0.132812 -0.617188 C 0.132812 -0.847656 0.207031 -1.015625 0.359375 -1.121094 C 0.511719 -1.226562 0.707031 -1.285156 0.953125 -1.296875 C 0.992188 -1.300781 1.117188 -1.308594 1.328125 -1.316406 L 1.527344 -1.328125 Z "/>
</g>
<g id="glyph-0-2">
<path d="M 0.839844 0 L 0.238281 0 L 0.238281 -2.210938 L 0.808594 -2.210938 L 0.808594 -1.824219 L 0.832031 -1.824219 C 0.886719 -1.953125 0.96875 -2.054688 1.082031 -2.128906 C 1.195312 -2.203125 1.335938 -2.238281 1.5 -2.238281 C 1.652344 -2.238281 1.785156 -2.203125 1.902344 -2.136719 C 2.015625 -2.070312 2.101562 -1.976562 2.164062 -1.851562 C 2.226562 -1.726562 2.261719 -1.578125 2.261719 -1.410156 L 2.261719 0 L 1.660156 0 L 1.660156 -1.304688 C 1.660156 -1.394531 1.644531 -1.472656 1.613281 -1.535156 C 1.582031 -1.601562 1.535156 -1.652344 1.476562 -1.6875 C 1.417969 -1.722656 1.347656 -1.738281 1.261719 -1.738281 C 1.179688 -1.738281 1.105469 -1.71875 1.039062 -1.683594 C 0.976562 -1.648438 0.925781 -1.59375 0.890625 -1.527344 C 0.855469 -1.457031 0.839844 -1.375 0.839844 -1.28125 Z "/>
</g>
<g id="glyph-0-3">
<path d="M 1.226562 0.875 C 1.027344 0.875 0.855469 0.847656 0.703125 0.789062 C 0.554688 0.730469 0.4375 0.652344 0.351562 0.546875 C 0.269531 0.445312 0.21875 0.320312 0.207031 0.179688 L 0.800781 0.179688 C 0.820312 0.265625 0.863281 0.332031 0.941406 0.375 C 1.015625 0.417969 1.117188 0.4375 1.242188 0.4375 C 1.390625 0.4375 1.503906 0.40625 1.585938 0.335938 C 1.667969 0.269531 1.707031 0.164062 1.707031 0.015625 L 1.707031 -0.390625 L 1.683594 -0.390625 C 1.652344 -0.320312 1.609375 -0.261719 1.554688 -0.207031 C 1.503906 -0.15625 1.433594 -0.113281 1.347656 -0.0820312 C 1.261719 -0.046875 1.164062 -0.03125 1.050781 -0.03125 C 0.878906 -0.03125 0.726562 -0.0703125 0.59375 -0.152344 C 0.457031 -0.234375 0.351562 -0.355469 0.269531 -0.519531 C 0.191406 -0.683594 0.152344 -0.882812 0.152344 -1.121094 C 0.152344 -1.359375 0.191406 -1.566406 0.273438 -1.734375 C 0.351562 -1.902344 0.460938 -2.027344 0.59375 -2.113281 C 0.730469 -2.195312 0.882812 -2.238281 1.050781 -2.238281 C 1.167969 -2.238281 1.265625 -2.21875 1.351562 -2.179688 C 1.433594 -2.140625 1.5 -2.09375 1.546875 -2.039062 C 1.597656 -1.984375 1.640625 -1.917969 1.679688 -1.839844 L 1.703125 -1.839844 L 1.703125 -2.210938 L 2.300781 -2.210938 L 2.300781 0.0234375 C 2.300781 0.207031 2.257812 0.359375 2.167969 0.488281 C 2.078125 0.617188 1.949219 0.714844 1.789062 0.777344 C 1.628906 0.84375 1.441406 0.875 1.226562 0.875 Z M 1.238281 -0.488281 C 1.335938 -0.488281 1.421875 -0.511719 1.492188 -0.5625 C 1.5625 -0.613281 1.617188 -0.683594 1.65625 -0.777344 C 1.691406 -0.871094 1.710938 -0.984375 1.710938 -1.113281 C 1.710938 -1.246094 1.691406 -1.359375 1.65625 -1.457031 C 1.617188 -1.554688 1.5625 -1.628906 1.492188 -1.679688 C 1.421875 -1.730469 1.335938 -1.757812 1.238281 -1.757812 C 1.136719 -1.757812 1.050781 -1.730469 0.980469 -1.675781 C 0.910156 -1.621094 0.859375 -1.546875 0.820312 -1.449219 C 0.785156 -1.351562 0.765625 -1.242188 0.765625 -1.113281 C 0.765625 -0.984375 0.785156 -0.875 0.820312 -0.78125 C 0.855469 -0.6875 0.910156 -0.613281 0.980469 -0.5625 C 1.050781 -0.511719 1.136719 -0.488281 1.238281 -0.488281 Z "/>
</g>
<g id="glyph-0-4">
<path d="M 2.203125 -1.996094 C 2.175781 -2.089844 2.136719 -2.171875 2.078125 -2.238281 C 2.019531 -2.304688 1.949219 -2.355469 1.863281 -2.390625 C 1.78125 -2.425781 1.683594 -2.445312 1.578125 -2.445312 C 1.425781 -2.445312 1.292969 -2.40625 1.175781 -2.332031 C 1.0625 -2.257812 0.972656 -2.144531 0.910156 -2 C 0.84375 -1.855469 0.8125 -1.679688 0.8125 -1.476562 C 0.8125 -1.269531 0.84375 -1.09375 0.90625 -0.949219 C 0.96875 -0.804688 1.058594 -0.691406 1.175781 -0.617188 C 1.289062 -0.539062 1.425781 -0.5 1.582031 -0.5 C 1.722656 -0.5 1.84375 -0.527344 1.949219 -0.578125 C 2.050781 -0.628906 2.128906 -0.703125 2.179688 -0.796875 C 2.234375 -0.890625 2.261719 -1 2.261719 -1.128906 L 2.386719 -1.109375 L 1.625 -1.109375 L 1.625 -1.574219 L 2.851562 -1.574219 L 2.851562 -1.203125 C 2.851562 -0.949219 2.796875 -0.730469 2.691406 -0.542969 C 2.582031 -0.355469 2.429688 -0.210938 2.238281 -0.109375 C 2.046875 -0.0078125 1.828125 0.0390625 1.582031 0.0390625 C 1.308594 0.0390625 1.066406 -0.0195312 0.855469 -0.144531 C 0.644531 -0.265625 0.484375 -0.441406 0.367188 -0.667969 C 0.25 -0.898438 0.191406 -1.164062 0.191406 -1.472656 C 0.191406 -1.78125 0.253906 -2.050781 0.371094 -2.28125 C 0.492188 -2.507812 0.65625 -2.683594 0.863281 -2.804688 C 1.070312 -2.925781 1.304688 -2.988281 1.566406 -2.988281 C 1.785156 -2.988281 1.988281 -2.945312 2.167969 -2.859375 C 2.351562 -2.777344 2.5 -2.660156 2.613281 -2.511719 C 2.726562 -2.359375 2.800781 -2.191406 2.828125 -1.996094 Z "/>
</g>
<g id="glyph-0-5">
<path d="M 0.238281 -2.210938 L 0.820312 -2.210938 L 0.820312 -1.824219 L 0.84375 -1.824219 C 0.882812 -1.960938 0.949219 -2.0625 1.042969 -2.136719 C 1.136719 -2.207031 1.25 -2.242188 1.375 -2.242188 C 1.4375 -2.242188 1.503906 -2.234375 1.566406 -2.222656 L 1.566406 -1.683594 C 1.539062 -1.695312 1.5 -1.703125 1.449219 -1.707031 C 1.398438 -1.714844 1.351562 -1.71875 1.308594 -1.71875 C 1.21875 -1.71875 1.140625 -1.699219 1.066406 -1.660156 C 0.996094 -1.621094 0.941406 -1.566406 0.898438 -1.496094 C 0.859375 -1.425781 0.839844 -1.347656 0.839844 -1.253906 L 0.839844 0 L 0.238281 0 Z "/>
</g>
<g id="glyph-0-6">
<path d="M 0.238281 -2.210938 L 0.828125 -2.210938 L 0.828125 -1.839844 L 0.855469 -1.839844 C 0.890625 -1.914062 0.9375 -1.980469 0.984375 -2.035156 C 1.035156 -2.09375 1.101562 -2.140625 1.1875 -2.179688 C 1.269531 -2.21875 1.371094 -2.238281 1.484375 -2.238281 C 1.652344 -2.238281 1.804688 -2.195312 1.9375 -2.109375 C 2.074219 -2.023438 2.183594 -1.898438 2.261719 -1.726562 C 2.339844 -1.554688 2.382812 -1.347656 2.382812 -1.101562 C 2.382812 -0.863281 2.34375 -0.660156 2.265625 -0.488281 C 2.1875 -0.316406 2.082031 -0.183594 1.945312 -0.0976562 C 1.808594 -0.0078125 1.65625 0.0351562 1.484375 0.0351562 C 1.371094 0.0351562 1.273438 0.015625 1.191406 -0.0234375 C 1.105469 -0.0585938 1.039062 -0.105469 0.988281 -0.160156 C 0.9375 -0.214844 0.894531 -0.277344 0.855469 -0.351562 L 0.839844 -0.351562 L 0.839844 0.832031 L 0.238281 0.832031 Z M 0.824219 -1.105469 C 0.824219 -0.976562 0.839844 -0.859375 0.878906 -0.757812 C 0.917969 -0.660156 0.96875 -0.582031 1.042969 -0.527344 C 1.113281 -0.472656 1.199219 -0.445312 1.296875 -0.445312 C 1.398438 -0.445312 1.484375 -0.472656 1.554688 -0.53125 C 1.625 -0.585938 1.679688 -0.664062 1.714844 -0.761719 C 1.75 -0.859375 1.769531 -0.976562 1.769531 -1.105469 C 1.769531 -1.234375 1.75 -1.351562 1.714844 -1.449219 C 1.679688 -1.546875 1.625 -1.621094 1.554688 -1.675781 C 1.484375 -1.730469 1.398438 -1.757812 1.296875 -1.757812 C 1.195312 -1.757812 1.113281 -1.730469 1.039062 -1.679688 C 0.96875 -1.625 0.917969 -1.550781 0.878906 -1.453125 C 0.839844 -1.355469 0.824219 -1.238281 0.824219 -1.105469 Z "/>
</g>
<g id="glyph-0-7">
<path d="M 0.839844 0 L 0.238281 0 L 0.238281 -2.945312 L 0.820312 -2.945312 L 0.820312 -1.824219 L 0.847656 -1.824219 C 0.898438 -1.953125 0.980469 -2.054688 1.09375 -2.128906 C 1.203125 -2.203125 1.34375 -2.238281 1.507812 -2.238281 C 1.660156 -2.238281 1.796875 -2.203125 1.910156 -2.136719 C 2.023438 -2.070312 2.113281 -1.976562 2.175781 -1.851562 C 2.238281 -1.726562 2.269531 -1.578125 2.269531 -1.410156 L 2.269531 0 L 1.667969 0 L 1.667969 -1.304688 C 1.667969 -1.394531 1.652344 -1.472656 1.621094 -1.539062 C 1.589844 -1.601562 1.546875 -1.652344 1.484375 -1.6875 C 1.425781 -1.722656 1.351562 -1.738281 1.269531 -1.738281 C 1.183594 -1.738281 1.109375 -1.71875 1.046875 -1.683594 C 0.980469 -1.648438 0.929688 -1.59375 0.894531 -1.527344 C 0.855469 -1.457031 0.839844 -1.375 0.839844 -1.28125 Z "/>
</g>
<g id="glyph-0-8">
<rect x="0" y="0" width="0" height="0" mask="url(#mask-0)"/>
</g>
<g id="glyph-0-9">
<path d="M 2.222656 -2.570312 L 0.15625 -2.570312 L 0.15625 -2.988281 L 2.222656 -2.988281 Z M 0.0625 -0.902344 C 0.5 -0.902344 0.902344 -0.90625 1.28125 -0.917969 C 1.65625 -0.933594 2.007812 -0.960938 2.335938 -1 L 2.359375 -0.628906 C 2.023438 -0.570312 1.671875 -0.53125 1.308594 -0.511719 C 0.941406 -0.492188 0.546875 -0.476562 0.121094 -0.476562 Z M 0.984375 -0.785156 L 0.480469 -0.785156 L 0.480469 -2.660156 L 0.984375 -2.660156 Z M 1.890625 -0.785156 L 1.390625 -0.785156 L 1.390625 -2.660156 L 1.890625 -2.660156 Z M 3.03125 0.375 L 2.511719 0.375 L 2.511719 -3.332031 L 3.03125 -3.332031 Z M 3.582031 -1.496094 L 2.917969 -1.496094 L 2.917969 -1.917969 L 3.582031 -1.917969 Z "/>
</g>
<g id="glyph-0-10">
<path d="M 3.210938 0.382812 L 2.683594 0.382812 L 2.683594 -3.332031 L 3.210938 -3.332031 Z M 1.199219 -3.070312 C 1.386719 -3.070312 1.550781 -3.015625 1.699219 -2.90625 C 1.847656 -2.796875 1.964844 -2.644531 2.046875 -2.445312 C 2.128906 -2.246094 2.171875 -2.015625 2.171875 -1.75 C 2.171875 -1.484375 2.128906 -1.25 2.046875 -1.050781 C 1.964844 -0.851562 1.847656 -0.699219 1.699219 -0.589844 C 1.550781 -0.480469 1.382812 -0.429688 1.199219 -0.429688 C 1.011719 -0.429688 0.839844 -0.484375 0.691406 -0.589844 C 0.542969 -0.699219 0.429688 -0.851562 0.34375 -1.050781 C 0.261719 -1.25 0.21875 -1.484375 0.21875 -1.75 C 0.21875 -2.015625 0.261719 -2.246094 0.34375 -2.445312 C 0.429688 -2.644531 0.542969 -2.796875 0.691406 -2.90625 C 0.839844 -3.015625 1.007812 -3.070312 1.199219 -3.070312 Z M 1.199219 -2.601562 C 1.101562 -2.601562 1.019531 -2.570312 0.949219 -2.503906 C 0.875 -2.4375 0.820312 -2.339844 0.78125 -2.210938 C 0.742188 -2.082031 0.722656 -1.929688 0.722656 -1.75 C 0.722656 -1.570312 0.742188 -1.414062 0.78125 -1.289062 C 0.820312 -1.160156 0.875 -1.0625 0.949219 -0.996094 C 1.019531 -0.933594 1.101562 -0.898438 1.199219 -0.898438 C 1.292969 -0.898438 1.375 -0.933594 1.445312 -0.996094 C 1.519531 -1.0625 1.574219 -1.160156 1.613281 -1.289062 C 1.652344 -1.417969 1.671875 -1.570312 1.671875 -1.75 C 1.671875 -1.929688 1.652344 -2.085938 1.613281 -2.210938 C 1.574219 -2.339844 1.519531 -2.4375 1.449219 -2.503906 C 1.378906 -2.570312 1.292969 -2.601562 1.199219 -2.601562 Z "/>
</g>
<g id="glyph-0-11">
<path d="M 3.5 -0.0546875 L 0.113281 -0.0546875 L 0.113281 -0.484375 L 3.5 -0.484375 Z M 3.214844 -2.589844 L 0.375 -2.589844 L 0.375 -3.003906 L 3.214844 -3.003906 Z M 3.199219 -1.054688 L 0.390625 -1.054688 L 0.390625 -1.46875 L 3.199219 -1.46875 Z M 1.40625 -1.425781 L 0.886719 -1.425781 L 0.886719 -2.628906 L 1.40625 -2.628906 Z M 2.695312 -1.425781 L 2.183594 -1.425781 L 2.183594 -2.628906 L 2.695312 -2.628906 Z "/>
</g>
<g id="glyph-0-12">
<path d="M 3.03125 0.382812 L 2.519531 0.382812 L 2.519531 -3.332031 L 3.03125 -3.332031 Z M 3.582031 -1.5 L 2.917969 -1.5 L 2.917969 -1.929688 L 3.582031 -1.929688 Z M 0.578125 -0.910156 C 0.925781 -0.910156 1.226562 -0.917969 1.480469 -0.933594 C 1.738281 -0.949219 1.996094 -0.976562 2.257812 -1.019531 L 2.304688 -0.605469 C 2.035156 -0.558594 1.769531 -0.527344 1.503906 -0.507812 C 1.234375 -0.488281 0.925781 -0.480469 0.578125 -0.480469 L 0.265625 -0.480469 L 0.265625 -0.910156 Z M 1.972656 -1.585938 L 0.78125 -1.585938 L 0.78125 -0.746094 L 0.265625 -0.746094 L 0.265625 -1.996094 L 1.453125 -1.996094 L 1.453125 -2.601562 L 0.261719 -2.601562 L 0.261719 -3.019531 L 1.972656 -3.019531 Z "/>
</g>
<g id="glyph-0-13">
<path d="M 3.210938 -0.664062 L 2.6875 -0.664062 L 2.6875 -3.324219 L 3.210938 -3.324219 Z M 3.308594 0.3125 L 0.726562 0.3125 L 0.726562 -0.109375 L 3.308594 -0.109375 Z M 1.253906 0.0625 L 0.726562 0.0625 L 0.726562 -0.929688 L 1.253906 -0.929688 Z M 1.179688 -3.089844 C 1.367188 -3.089844 1.539062 -3.050781 1.695312 -2.972656 C 1.851562 -2.890625 1.972656 -2.78125 2.058594 -2.636719 C 2.148438 -2.496094 2.191406 -2.335938 2.191406 -2.160156 C 2.191406 -1.976562 2.148438 -1.816406 2.058594 -1.671875 C 1.972656 -1.53125 1.851562 -1.417969 1.695312 -1.335938 C 1.539062 -1.257812 1.367188 -1.214844 1.179688 -1.214844 C 0.992188 -1.214844 0.820312 -1.257812 0.667969 -1.335938 C 0.511719 -1.417969 0.390625 -1.53125 0.300781 -1.671875 C 0.210938 -1.816406 0.167969 -1.976562 0.167969 -2.160156 C 0.167969 -2.335938 0.210938 -2.496094 0.300781 -2.636719 C 0.390625 -2.78125 0.511719 -2.890625 0.667969 -2.972656 C 0.820312 -3.050781 0.992188 -3.089844 1.179688 -3.089844 Z M 1.179688 -2.636719 C 1.082031 -2.640625 0.996094 -2.621094 0.921875 -2.582031 C 0.84375 -2.542969 0.78125 -2.488281 0.738281 -2.414062 C 0.695312 -2.34375 0.675781 -2.257812 0.675781 -2.160156 C 0.675781 -2.058594 0.695312 -1.972656 0.738281 -1.898438 C 0.78125 -1.824219 0.84375 -1.765625 0.921875 -1.726562 C 0.996094 -1.6875 1.082031 -1.671875 1.179688 -1.671875 C 1.273438 -1.671875 1.359375 -1.6875 1.4375 -1.726562 C 1.511719 -1.765625 1.570312 -1.824219 1.613281 -1.898438 C 1.65625 -1.972656 1.679688 -2.058594 1.679688 -2.160156 C 1.679688 -2.257812 1.65625 -2.34375 1.613281 -2.414062 C 1.570312 -2.488281 1.511719 -2.542969 1.4375 -2.582031 C 1.359375 -2.621094 1.273438 -2.640625 1.179688 -2.636719 Z "/>
</g>
</g>
<image id="source-51" x="0" y="0" width="0" height="0"/>
<mask id="mask-0">
<use xlink:href="#source-51"/>
</mask>
</defs>
<g fill="rgb(100%, 100%, 100%)" fill-opacity="1">
<use xlink:href="#glyph-0-0" x="30" y="23.967773"/>
<use xlink:href="#glyph-0-1" x="32" y="23.967773"/>
<use xlink:href="#glyph-0-2" x="34" y="23.967773"/>
<use xlink:href="#glyph-0-3" x="36" y="23.967773"/>
<use xlink:href="#glyph-0-4" x="39" y="23.967773"/>
<use xlink:href="#glyph-0-5" x="42" y="23.967773"/>
<use xlink:href="#glyph-0-1" x="44" y="23.967773"/>
<use xlink:href="#glyph-0-6" x="46" y="23.967773"/>
<use xlink:href="#glyph-0-7" x="49" y="23.967773"/>
<use xlink:href="#glyph-0-8" x="52" y="23.967773"/>
</g>
<g fill="rgb(100%, 100%, 100%)" fill-opacity="1">
<use xlink:href="#glyph-0-9" x="30" y="28.030273"/>
<use xlink:href="#glyph-0-10" x="34" y="28.030273"/>
<use xlink:href="#glyph-0-11" x="38" y="28.030273"/>
<use xlink:href="#glyph-0-12" x="42" y="28.030273"/>
<use xlink:href="#glyph-0-13" x="46" y="28.030273"/>
</g>
</svg>
