<?xml version="1.0" encoding="UTF-8"?>
<svg xmlns="http://www.w3.org/2000/svg" xmlns:xlink="http://www.w3.org/1999/xlink" width="1920" height="1080" viewBox="0 0 1920 1080">
<defs>
<g>
<g id="glyph-0-0">
<path d="M 3.101562 -5.316406 C 3.101562 -4.625 3.015625 -3.976562 2.847656 -3.375 C 2.679688 -2.777344 2.421875 -2.25 2.082031 -1.792969 C 1.738281 -1.339844 1.3125 -0.996094 0.800781 -0.761719 L 0.132812 -1.683594 C 0.578125 -1.875 0.957031 -2.15625 1.265625 -2.527344 C 1.574219 -2.898438 1.804688 -3.320312 1.957031 -3.800781 C 2.109375 -4.28125 2.1875 -4.789062 2.1875 -5.316406 L 2.1875 -6.5 L 3.101562 -6.5 Z M 3.3125 -5.316406 C 3.3125 -4.8125 3.386719 -4.335938 3.535156 -3.878906 C 3.683594 -3.421875 3.910156 -3.015625 4.210938 -2.65625 C 4.511719 -2.296875 4.878906 -2.027344 5.308594 -1.84375 L 4.65625 -0.957031 C 4.167969 -1.179688 3.753906 -1.507812 3.414062 -1.945312 C 3.074219 -2.382812 2.820312 -2.890625 2.652344 -3.464844 C 2.484375 -4.039062 2.398438 -4.65625 2.398438 -5.316406 L 2.398438 -6.5 L 3.3125 -6.5 Z M 6.847656 0.820312 L 5.726562 0.820312 L 5.726562 -7.109375 L 6.847656 -7.109375 Z "/>
</g>
<g id="glyph-0-1">
<path d="M 4.183594 -6.0625 C 4.183594 -5.492188 4.050781 -4.957031 3.78125 -4.457031 C 3.511719 -3.957031 3.128906 -3.527344 2.632812 -3.171875 C 2.136719 -2.816406 1.554688 -2.574219 0.890625 -2.4375 L 0.417969 -3.359375 C 0.984375 -3.464844 1.480469 -3.660156 1.902344 -3.9375 C 2.328125 -4.214844 2.652344 -4.539062 2.875 -4.914062 C 3.097656 -5.289062 3.210938 -5.671875 3.210938 -6.0625 L 3.210938 -6.628906 L 4.183594 -6.628906 Z M 4.390625 -6.0625 C 4.390625 -5.667969 4.5 -5.28125 4.726562 -4.90625 C 4.949219 -4.53125 5.277344 -4.203125 5.703125 -3.925781 C 6.128906 -3.648438 6.628906 -3.460938 7.203125 -3.359375 L 6.714844 -2.4375 C 6.054688 -2.574219 5.476562 -2.816406 4.980469 -3.164062 C 4.484375 -3.515625 4.105469 -3.941406 3.839844 -4.441406 C 3.574219 -4.941406 3.4375 -5.480469 3.4375 -6.0625 L 3.4375 -6.628906 L 4.390625 -6.628906 Z M 7.460938 -0.171875 L 0.238281 -0.171875 L 0.238281 -1.078125 L 7.460938 -1.078125 Z "/>
</g>
<g id="glyph-0-2">
<path d="M 4.832031 -4.3125 L 3.601562 -4.3125 L 3.601562 -5.203125 L 4.832031 -5.203125 Z M 1.085938 -3.570312 C 1.691406 -3.570312 2.195312 -3.582031 2.597656 -3.605469 C 3.003906 -3.628906 3.414062 -3.675781 3.828125 -3.742188 L 3.9375 -2.886719 C 3.511719 -2.8125 3.089844 -2.761719 2.675781 -2.734375 C 2.261719 -2.707031 1.730469 -2.695312 1.085938 -2.695312 L 0.550781 -2.695312 L 0.550781 -3.570312 Z M 3.5625 -5.742188 L 1.609375 -5.742188 L 1.609375 -3.066406 L 0.550781 -3.066406 L 0.550781 -6.632812 L 3.5625 -6.632812 Z M 3.265625 -4.261719 L 1.292969 -4.261719 L 1.292969 -5.109375 L 3.265625 -5.109375 Z M 7.023438 -2.386719 L 5.96875 -2.386719 L 5.96875 -7.109375 L 7.023438 -7.109375 Z M 5.453125 -2.441406 L 4.402344 -2.441406 L 4.402344 -6.980469 L 5.453125 -6.980469 Z M 7.023438 0.710938 L 1.628906 0.710938 L 1.628906 -2.078125 L 7.023438 -2.078125 Z M 2.730469 -0.175781 L 5.921875 -0.175781 L 5.921875 -1.203125 L 2.730469 -1.203125 Z "/>
</g>
<g id="glyph-0-3">
<rect x="0" y="0" width="0" height="0" mask="url(#mask-0)"/>
</g>
<g id="glyph-0-4">
<path d="M 6.066406 -5.761719 L 1.058594 -5.761719 L 1.058594 -6.640625 L 6.066406 -6.640625 Z M 7.441406 -2.382812 L 0.238281 -2.382812 L 0.238281 -3.277344 L 7.441406 -3.277344 Z M 4.359375 0.808594 L 3.246094 0.808594 L 3.246094 -2.65625 L 4.359375 -2.65625 Z M 6.597656 -5.933594 C 6.597656 -5.535156 6.59375 -5.195312 6.582031 -4.917969 C 6.570312 -4.640625 6.542969 -4.316406 6.496094 -3.949219 C 6.449219 -3.578125 6.378906 -3.175781 6.28125 -2.746094 L 5.1875 -2.867188 C 5.285156 -3.277344 5.355469 -3.660156 5.398438 -4.015625 C 5.445312 -4.375 5.472656 -4.691406 5.480469 -4.964844 C 5.488281 -5.242188 5.492188 -5.5625 5.492188 -5.929688 L 5.492188 -6.640625 L 6.597656 -6.640625 Z "/>
</g>
<g id="glyph-0-5">
<path d="M 7.460938 -0.121094 L 0.238281 -0.121094 L 0.238281 -1.023438 L 7.460938 -1.023438 Z M 4.402344 -0.757812 L 3.289062 -0.757812 L 3.289062 -2.777344 L 4.402344 -2.777344 Z M 4.191406 -5.777344 C 4.191406 -5.222656 4.0625 -4.714844 3.800781 -4.25 C 3.539062 -3.789062 3.167969 -3.402344 2.679688 -3.085938 C 2.191406 -2.773438 1.617188 -2.554688 0.960938 -2.429688 L 0.527344 -3.308594 C 1.085938 -3.402344 1.574219 -3.570312 1.984375 -3.820312 C 2.398438 -4.066406 2.710938 -4.359375 2.925781 -4.699219 C 3.140625 -5.039062 3.25 -5.398438 3.25 -5.777344 L 3.25 -6.0625 L 4.191406 -6.0625 Z M 4.414062 -5.777344 C 4.414062 -5.398438 4.523438 -5.039062 4.742188 -4.707031 C 4.960938 -4.371094 5.28125 -4.082031 5.703125 -3.84375 C 6.125 -3.601562 6.621094 -3.4375 7.199219 -3.351562 L 6.761719 -2.480469 C 6.097656 -2.597656 5.519531 -2.808594 5.023438 -3.117188 C 4.527344 -3.421875 4.148438 -3.804688 3.882812 -4.261719 C 3.621094 -4.71875 3.488281 -5.222656 3.488281 -5.777344 L 3.488281 -6.0625 L 4.414062 -6.0625 Z M 6.832031 -5.605469 L 0.835938 -5.605469 L 0.835938 -6.503906 L 6.832031 -6.503906 Z "/>
</g>
</g>
<image id="source-8" x="0" y="0" width="0" height="0"/>
<mask id="mask-0">
<use xlink:href="#source-8"/>
</mask>
</defs>
<g fill="rgb(5.882353%, 9.019608%, 16.470588%)" fill-opacity="1">
<use xlink:href="#glyph-0-0" x="30" y="28.463867"/>
<use xlink:href="#glyph-0-1" x="38" y="28.463867"/>
<use xlink:href="#glyph-0-2" x="46" y="28.463867"/>
<use xlink:href="#glyph-0-3" x="54" y="28.463867"/>
<use xlink:href="#glyph-0-4" x="56" y="28.463867"/>
<use xlink:href="#glyph-0-5" x="64" y="28.463867"/>
</g>
</svg>
