<?xml version="1.0" encoding="UTF-8"?>
<svg xmlns="http://www.w3.org/2000/svg" xmlns:xlink="http://www.w3.org/1999/xlink" width="1920" height="1080" viewBox="0 0 1920 1080">
<defs>
<g>
<g id="glyph-0-0">
<path d="M 1.710938 -1.484375 C 1.683594 -1.578125 1.640625 -1.660156 1.582031 -1.726562 C 1.523438 -1.796875 1.453125 -1.847656 1.375 -1.882812 C 1.292969 -1.921875 1.203125 -1.941406 1.101562 -1.941406 C 0.972656 -1.941406 0.855469 -1.90625 0.753906 -1.839844 C 0.648438 -1.773438 0.566406 -1.675781 0.503906 -1.546875 C 0.445312 -1.417969 0.414062 -1.261719 0.414062 -1.082031 C 0.414062 -0.898438 0.445312 -0.742188 0.503906 -0.613281 C 0.566406 -0.484375 0.648438 -0.386719 0.757812 -0.320312 C 0.863281 -0.253906 0.984375 -0.222656 1.117188 -0.222656 C 1.242188 -0.222656 1.351562 -0.246094 1.445312 -0.300781 C 1.539062 -0.351562 1.609375 -0.425781 1.664062 -0.523438 C 1.714844 -0.621094 1.738281 -0.734375 1.738281 -0.863281 L 1.820312 -0.847656 L 1.175781 -0.847656 L 1.175781 -1.082031 L 2.003906 -1.082031 L 2.003906 -0.851562 C 2.003906 -0.675781 1.964844 -0.519531 1.890625 -0.386719 C 1.8125 -0.253906 1.707031 -0.152344 1.574219 -0.078125 C 1.441406 -0.0078125 1.289062 0.03125 1.117188 0.03125 C 0.925781 0.03125 0.761719 -0.015625 0.613281 -0.105469 C 0.46875 -0.195312 0.355469 -0.324219 0.277344 -0.492188 C 0.195312 -0.660156 0.15625 -0.855469 0.15625 -1.082031 C 0.15625 -1.304688 0.195312 -1.5 0.277344 -1.667969 C 0.355469 -1.835938 0.46875 -1.964844 0.613281 -2.054688 C 0.753906 -2.144531 0.917969 -2.191406 1.101562 -2.191406 C 1.253906 -2.191406 1.390625 -2.160156 1.515625 -2.101562 C 1.640625 -2.042969 1.746094 -1.960938 1.828125 -1.855469 C 1.910156 -1.75 1.964844 -1.625 1.992188 -1.484375 Z "/>
</g>
<g id="glyph-0-1">
<path d="M 0.207031 -1.621094 L 0.460938 -1.621094 L 0.460938 0 L 0.207031 0 Z M 0.335938 -1.890625 C 0.304688 -1.890625 0.273438 -1.894531 0.246094 -1.910156 C 0.21875 -1.925781 0.195312 -1.945312 0.179688 -1.972656 C 0.164062 -2 0.15625 -2.027344 0.15625 -2.058594 C 0.15625 -2.089844 0.164062 -2.121094 0.179688 -2.144531 C 0.195312 -2.171875 0.21875 -2.191406 0.246094 -2.207031 C 0.273438 -2.222656 0.300781 -2.230469 0.335938 -2.230469 C 0.367188 -2.230469 0.398438 -2.222656 0.425781 -2.207031 C 0.453125 -2.191406 0.476562 -2.171875 0.492188 -2.144531 C 0.507812 -2.121094 0.515625 -2.089844 0.515625 -2.058594 C 0.515625 -2.027344 0.507812 -2 0.492188 -1.972656 C 0.476562 -1.945312 0.453125 -1.925781 0.425781 -1.910156 C 0.398438 -1.894531 0.367188 -1.890625 0.335938 -1.890625 Z "/>
</g>
<g id="glyph-0-2">
<path d="M 0.914062 -1.40625 L 0.0703125 -1.40625 L 0.0703125 -1.621094 L 0.914062 -1.621094 Z M 0.574219 -2.007812 L 0.574219 -0.464844 C 0.574219 -0.398438 0.582031 -0.351562 0.601562 -0.316406 C 0.621094 -0.28125 0.644531 -0.257812 0.675781 -0.242188 C 0.707031 -0.230469 0.742188 -0.222656 0.785156 -0.222656 C 0.835938 -0.222656 0.886719 -0.226562 0.9375 -0.230469 L 0.9375 0.0078125 C 0.886719 0.015625 0.824219 0.0195312 0.757812 0.0195312 C 0.683594 0.0195312 0.609375 0.00390625 0.542969 -0.0273438 C 0.476562 -0.0585938 0.421875 -0.105469 0.378906 -0.171875 C 0.335938 -0.234375 0.3125 -0.308594 0.3125 -0.398438 L 0.3125 -2.007812 Z "/>
</g>
<g id="glyph-0-3">
<path d="M 0.238281 -2.160156 L 0.507812 -2.160156 L 0.507812 -1.199219 L 1.648438 -1.199219 L 1.648438 -2.160156 L 1.921875 -2.160156 L 1.921875 0 L 1.648438 0 L 1.648438 -0.964844 L 0.507812 -0.964844 L 0.507812 0 L 0.238281 0 Z "/>
</g>
<g id="glyph-0-4">
<path d="M 1.230469 -1.621094 L 1.484375 -1.621094 L 1.484375 0 L 1.230469 0 L 1.230469 -0.273438 L 1.210938 -0.273438 C 1.167969 -0.1875 1.109375 -0.117188 1.027344 -0.0625 C 0.945312 -0.0078125 0.847656 0.0195312 0.730469 0.0195312 C 0.628906 0.0195312 0.535156 -0.00390625 0.457031 -0.046875 C 0.378906 -0.09375 0.316406 -0.164062 0.273438 -0.253906 C 0.226562 -0.34375 0.207031 -0.457031 0.207031 -0.589844 L 0.207031 -1.621094 L 0.460938 -1.621094 L 0.460938 -0.609375 C 0.460938 -0.535156 0.476562 -0.464844 0.507812 -0.410156 C 0.539062 -0.351562 0.578125 -0.304688 0.632812 -0.273438 C 0.6875 -0.242188 0.746094 -0.226562 0.816406 -0.226562 C 0.882812 -0.226562 0.945312 -0.242188 1.007812 -0.277344 C 1.070312 -0.308594 1.125 -0.359375 1.167969 -0.425781 C 1.207031 -0.492188 1.230469 -0.570312 1.230469 -0.664062 Z "/>
</g>
<g id="glyph-0-5">
<path d="M 0.238281 -2.160156 L 0.496094 -2.160156 L 0.496094 -1.363281 L 0.515625 -1.363281 C 0.554688 -1.421875 0.589844 -1.46875 0.613281 -1.5 C 0.640625 -1.53125 0.683594 -1.5625 0.746094 -1.59375 C 0.808594 -1.625 0.890625 -1.640625 0.984375 -1.640625 C 1.121094 -1.640625 1.238281 -1.605469 1.34375 -1.539062 C 1.449219 -1.472656 1.53125 -1.375 1.589844 -1.25 C 1.648438 -1.121094 1.675781 -0.976562 1.675781 -0.804688 C 1.675781 -0.636719 1.648438 -0.492188 1.589844 -0.363281 C 1.53125 -0.238281 1.449219 -0.140625 1.347656 -0.0703125 C 1.242188 0 1.121094 0.03125 0.988281 0.03125 C 0.894531 0.03125 0.816406 0.015625 0.753906 -0.015625 C 0.691406 -0.046875 0.644531 -0.0820312 0.613281 -0.117188 C 0.582031 -0.152344 0.550781 -0.195312 0.515625 -0.246094 L 0.488281 -0.246094 L 0.488281 0 L 0.238281 0 Z M 0.488281 -0.8125 C 0.488281 -0.691406 0.507812 -0.582031 0.542969 -0.492188 C 0.578125 -0.398438 0.632812 -0.328125 0.703125 -0.273438 C 0.773438 -0.222656 0.851562 -0.195312 0.949219 -0.195312 C 1.046875 -0.195312 1.132812 -0.222656 1.203125 -0.277344 C 1.273438 -0.332031 1.328125 -0.40625 1.363281 -0.496094 C 1.398438 -0.589844 1.417969 -0.695312 1.417969 -0.8125 C 1.417969 -0.925781 1.398438 -1.03125 1.363281 -1.121094 C 1.328125 -1.210938 1.277344 -1.28125 1.207031 -1.332031 C 1.136719 -1.386719 1.050781 -1.410156 0.949219 -1.410156 C 0.851562 -1.410156 0.769531 -1.386719 0.699219 -1.335938 C 0.632812 -1.285156 0.578125 -1.21875 0.542969 -1.128906 C 0.507812 -1.039062 0.488281 -0.933594 0.488281 -0.8125 Z "/>
</g>
<g id="glyph-0-6">
<rect x="0" y="0" width="0" height="0" mask="url(#mask-0)"/>
</g>
<g id="glyph-0-7">
<path d="M 0.0546875 0 L 0.84375 -2.160156 L 1.128906 -2.160156 L 1.917969 0 L 1.636719 0 L 0.992188 -1.8125 L 0.976562 -1.8125 L 0.335938 0 Z M 1.539062 -0.84375 L 1.539062 -0.609375 L 0.433594 -0.609375 L 0.433594 -0.84375 Z "/>
</g>
<g id="glyph-0-8">
<path d="M 0.867188 0.03125 C 0.71875 0.03125 0.589844 -0.00390625 0.476562 -0.0742188 C 0.363281 -0.144531 0.277344 -0.246094 0.21875 -0.371094 C 0.160156 -0.496094 0.128906 -0.640625 0.128906 -0.800781 C 0.128906 -0.964844 0.160156 -1.109375 0.222656 -1.238281 C 0.28125 -1.367188 0.367188 -1.464844 0.480469 -1.535156 C 0.589844 -1.605469 0.71875 -1.640625 0.863281 -1.640625 C 0.976562 -1.640625 1.082031 -1.621094 1.175781 -1.578125 C 1.265625 -1.535156 1.34375 -1.476562 1.398438 -1.398438 C 1.457031 -1.320312 1.492188 -1.230469 1.507812 -1.132812 L 1.25 -1.132812 C 1.238281 -1.183594 1.214844 -1.230469 1.183594 -1.273438 C 1.148438 -1.316406 1.105469 -1.351562 1.050781 -1.375 C 1 -1.402344 0.9375 -1.414062 0.867188 -1.414062 C 0.773438 -1.414062 0.6875 -1.390625 0.617188 -1.339844 C 0.542969 -1.289062 0.488281 -1.21875 0.445312 -1.128906 C 0.40625 -1.039062 0.386719 -0.933594 0.386719 -0.8125 C 0.386719 -0.6875 0.40625 -0.582031 0.445312 -0.488281 C 0.484375 -0.394531 0.539062 -0.324219 0.613281 -0.273438 C 0.6875 -0.222656 0.769531 -0.195312 0.867188 -0.195312 C 0.929688 -0.195312 0.988281 -0.207031 1.042969 -0.230469 C 1.09375 -0.25 1.140625 -0.285156 1.175781 -0.328125 C 1.210938 -0.371094 1.238281 -0.417969 1.25 -0.476562 L 1.507812 -0.476562 C 1.492188 -0.378906 1.457031 -0.292969 1.402344 -0.214844 C 1.347656 -0.140625 1.273438 -0.078125 1.183594 -0.0351562 C 1.089844 0.0117188 0.984375 0.03125 0.867188 0.03125 Z "/>
</g>
<g id="glyph-0-9">
<path d="M 0.867188 0.03125 C 0.722656 0.03125 0.59375 -0.00390625 0.480469 -0.0703125 C 0.367188 -0.140625 0.28125 -0.238281 0.222656 -0.367188 C 0.160156 -0.492188 0.128906 -0.636719 0.128906 -0.800781 C 0.128906 -0.96875 0.160156 -1.117188 0.222656 -1.242188 C 0.28125 -1.367188 0.371094 -1.46875 0.480469 -1.535156 C 0.59375 -1.605469 0.722656 -1.640625 0.867188 -1.640625 C 1.011719 -1.640625 1.140625 -1.605469 1.253906 -1.535156 C 1.363281 -1.464844 1.449219 -1.371094 1.511719 -1.242188 C 1.570312 -1.117188 1.601562 -0.96875 1.601562 -0.800781 C 1.601562 -0.636719 1.570312 -0.492188 1.511719 -0.367188 C 1.449219 -0.238281 1.363281 -0.140625 1.253906 -0.0703125 C 1.140625 0 1.011719 0.03125 0.867188 0.03125 Z M 0.867188 -0.195312 C 0.972656 -0.195312 1.0625 -0.222656 1.132812 -0.277344 C 1.207031 -0.332031 1.257812 -0.40625 1.292969 -0.5 C 1.328125 -0.589844 1.347656 -0.691406 1.347656 -0.800781 C 1.347656 -0.914062 1.328125 -1.015625 1.292969 -1.109375 C 1.257812 -1.203125 1.207031 -1.273438 1.132812 -1.332031 C 1.0625 -1.386719 0.972656 -1.414062 0.867188 -1.414062 C 0.761719 -1.414062 0.675781 -1.386719 0.601562 -1.332031 C 0.527344 -1.277344 0.472656 -1.199219 0.4375 -1.109375 C 0.402344 -1.015625 0.386719 -0.914062 0.386719 -0.800781 C 0.386719 -0.691406 0.402344 -0.589844 0.4375 -0.5 C 0.472656 -0.40625 0.527344 -0.332031 0.601562 -0.277344 C 0.675781 -0.222656 0.761719 -0.195312 0.867188 -0.195312 Z "/>
</g>
<g id="glyph-0-10">
<path d="M 0.460938 0 L 0.207031 0 L 0.207031 -1.621094 L 0.453125 -1.621094 L 0.453125 -1.367188 L 0.472656 -1.367188 C 0.515625 -1.453125 0.574219 -1.523438 0.652344 -1.570312 C 0.730469 -1.617188 0.828125 -1.640625 0.949219 -1.640625 C 1.058594 -1.640625 1.15625 -1.617188 1.238281 -1.574219 C 1.320312 -1.53125 1.382812 -1.460938 1.429688 -1.371094 C 1.472656 -1.277344 1.496094 -1.164062 1.496094 -1.03125 L 1.496094 0 L 1.238281 0 L 1.238281 -1.011719 C 1.238281 -1.09375 1.222656 -1.167969 1.195312 -1.226562 C 1.167969 -1.285156 1.125 -1.332031 1.070312 -1.363281 C 1.015625 -1.394531 0.949219 -1.410156 0.871094 -1.410156 C 0.792969 -1.410156 0.722656 -1.394531 0.660156 -1.359375 C 0.597656 -1.328125 0.550781 -1.277344 0.515625 -1.210938 C 0.480469 -1.144531 0.460938 -1.0625 0.460938 -0.972656 Z "/>
</g>
<g id="glyph-0-11">
<path d="M 1.105469 -1.199219 C 1.089844 -1.269531 1.054688 -1.328125 1 -1.363281 C 0.945312 -1.402344 0.871094 -1.421875 0.777344 -1.421875 C 0.710938 -1.421875 0.65625 -1.414062 0.601562 -1.390625 C 0.550781 -1.371094 0.511719 -1.34375 0.480469 -1.304688 C 0.449219 -1.265625 0.4375 -1.222656 0.4375 -1.179688 C 0.4375 -1.125 0.457031 -1.078125 0.503906 -1.042969 C 0.550781 -1.003906 0.621094 -0.972656 0.714844 -0.953125 L 0.953125 -0.890625 C 1.097656 -0.859375 1.207031 -0.804688 1.28125 -0.734375 C 1.351562 -0.660156 1.386719 -0.566406 1.386719 -0.453125 C 1.386719 -0.359375 1.363281 -0.277344 1.3125 -0.203125 C 1.261719 -0.128906 1.191406 -0.0703125 1.09375 -0.03125 C 1 0.0117188 0.886719 0.03125 0.753906 0.03125 C 0.632812 0.03125 0.527344 0.015625 0.4375 -0.0195312 C 0.351562 -0.0546875 0.28125 -0.105469 0.226562 -0.175781 C 0.175781 -0.242188 0.140625 -0.328125 0.128906 -0.421875 L 0.398438 -0.421875 C 0.414062 -0.34375 0.449219 -0.289062 0.507812 -0.25 C 0.566406 -0.210938 0.644531 -0.191406 0.746094 -0.191406 C 0.820312 -0.191406 0.886719 -0.199219 0.945312 -0.222656 C 1 -0.242188 1.042969 -0.269531 1.074219 -0.308594 C 1.105469 -0.34375 1.121094 -0.390625 1.121094 -0.4375 C 1.121094 -0.496094 1.101562 -0.542969 1.058594 -0.582031 C 1.015625 -0.621094 0.949219 -0.652344 0.855469 -0.671875 L 0.613281 -0.726562 C 0.472656 -0.761719 0.363281 -0.816406 0.289062 -0.890625 C 0.214844 -0.964844 0.179688 -1.054688 0.179688 -1.164062 C 0.179688 -1.253906 0.203125 -1.335938 0.253906 -1.410156 C 0.304688 -1.484375 0.375 -1.539062 0.46875 -1.578125 C 0.558594 -1.621094 0.660156 -1.640625 0.777344 -1.640625 C 0.886719 -1.640625 0.984375 -1.621094 1.066406 -1.585938 C 1.152344 -1.550781 1.21875 -1.496094 1.269531 -1.429688 C 1.320312 -1.363281 1.347656 -1.289062 1.359375 -1.199219 Z "/>
</g>
</g>
<image id="source-138" x="0" y="0" width="0" height="0"/>
<mask id="mask-0">
<use xlink:href="#source-138"/>
</mask>
</defs>
<g fill="rgb(58.039216%, 63.921569%, 72.156863%)" fill-opacity="1">
<use xlink:href="#glyph-0-0" x="30" y="22.90918"/>
<use xlink:href="#glyph-0-1" x="32" y="22.90918"/>
<use xlink:href="#glyph-0-2" x="33" y="22.90918"/>
<use xlink:href="#glyph-0-3" x="34" y="22.90918"/>
<use xlink:href="#glyph-0-4" x="36" y="22.90918"/>
<use xlink:href="#glyph-0-5" x="38" y="22.90918"/>
<use xlink:href="#glyph-0-6" x="40" y="22.90918"/>
<use xlink:href="#glyph-0-7" x="41" y="22.90918"/>
<use xlink:href="#glyph-0-8" x="43" y="22.90918"/>
<use xlink:href="#glyph-0-2" x="45" y="22.90918"/>
<use xlink:href="#glyph-0-1" x="46" y="22.90918"/>
<use xlink:href="#glyph-0-9" x="47" y="22.90918"/>
<use xlink:href="#glyph-0-10" x="49" y="22.90918"/>
<use xlink:href="#glyph-0-11" x="51" y="22.90918"/>
</g>
</svg>
