<?xml version="1.0" encoding="UTF-8"?>
<svg xmlns="http://www.w3.org/2000/svg" xmlns:xlink="http://www.w3.org/1999/xlink" width="1920" height="1080" viewBox="0 0 1920 1080">
<defs>
<g>
<g id="glyph-0-0">
<path d="M 1.132812 -2.363281 C 1.132812 -2.164062 1.09375 -1.980469 1.023438 -1.808594 C 0.949219 -1.632812 0.847656 -1.484375 0.71875 -1.355469 C 0.589844 -1.226562 0.4375 -1.128906 0.265625 -1.0625 L 0.117188 -1.285156 C 0.273438 -1.34375 0.410156 -1.425781 0.527344 -1.535156 C 0.644531 -1.640625 0.738281 -1.765625 0.804688 -1.910156 C 0.871094 -2.054688 0.902344 -2.203125 0.902344 -2.363281 L 0.902344 -2.6875 L 1.132812 -2.6875 Z M 1.175781 -2.339844 C 1.175781 -2.203125 1.207031 -2.066406 1.273438 -1.9375 C 1.339844 -1.808594 1.433594 -1.691406 1.550781 -1.59375 C 1.667969 -1.496094 1.804688 -1.417969 1.953125 -1.367188 L 1.800781 -1.148438 C 1.632812 -1.210938 1.488281 -1.300781 1.355469 -1.417969 C 1.226562 -1.539062 1.128906 -1.675781 1.054688 -1.835938 C 0.984375 -1.992188 0.949219 -2.164062 0.949219 -2.339844 L 0.949219 -2.6875 L 1.175781 -2.6875 Z M 2.578125 -0.941406 L 2.300781 -0.941406 L 2.300781 -2.847656 L 2.578125 -2.847656 Z M 3.050781 -1.796875 L 2.5 -1.796875 L 2.5 -2.03125 L 3.050781 -2.03125 Z M 1.574219 -0.859375 C 1.785156 -0.859375 1.972656 -0.839844 2.125 -0.792969 C 2.28125 -0.75 2.398438 -0.683594 2.480469 -0.597656 C 2.5625 -0.515625 2.605469 -0.414062 2.605469 -0.292969 C 2.605469 -0.171875 2.5625 -0.0703125 2.480469 0.015625 C 2.398438 0.101562 2.28125 0.167969 2.128906 0.210938 C 1.972656 0.257812 1.789062 0.277344 1.574219 0.277344 C 1.359375 0.277344 1.171875 0.257812 1.015625 0.210938 C 0.859375 0.167969 0.742188 0.101562 0.65625 0.015625 C 0.574219 -0.0703125 0.53125 -0.171875 0.53125 -0.292969 C 0.53125 -0.414062 0.574219 -0.515625 0.65625 -0.597656 C 0.742188 -0.683594 0.859375 -0.75 1.015625 -0.792969 C 1.171875 -0.835938 1.359375 -0.859375 1.574219 -0.859375 Z M 1.574219 -0.636719 C 1.417969 -0.636719 1.28125 -0.625 1.167969 -0.597656 C 1.050781 -0.570312 0.964844 -0.53125 0.902344 -0.476562 C 0.839844 -0.425781 0.8125 -0.363281 0.8125 -0.292969 C 0.8125 -0.21875 0.839844 -0.15625 0.902344 -0.105469 C 0.964844 -0.0507812 1.050781 -0.0117188 1.164062 0.015625 C 1.277344 0.0429688 1.414062 0.0585938 1.574219 0.0585938 C 1.734375 0.0585938 1.871094 0.0429688 1.984375 0.015625 C 2.097656 -0.0117188 2.183594 -0.0507812 2.246094 -0.105469 C 2.308594 -0.15625 2.335938 -0.21875 2.335938 -0.292969 C 2.335938 -0.367188 2.308594 -0.429688 2.246094 -0.480469 C 2.183594 -0.53125 2.097656 -0.570312 1.980469 -0.597656 C 1.867188 -0.625 1.730469 -0.636719 1.574219 -0.636719 Z "/>
</g>
<g id="glyph-0-1">
<path d="M 2.835938 -2.152344 L 0.269531 -2.152344 L 0.269531 -2.382812 L 2.835938 -2.382812 Z M 2.996094 -0.0820312 L 0.125 -0.0820312 L 0.125 -0.308594 L 2.996094 -0.308594 Z M 1.6875 -0.226562 L 1.417969 -0.226562 L 1.417969 -0.816406 L 1.6875 -0.816406 Z M 1.554688 -1.9375 C 1.765625 -1.941406 1.945312 -1.917969 2.101562 -1.871094 C 2.257812 -1.824219 2.375 -1.757812 2.460938 -1.667969 C 2.542969 -1.582031 2.585938 -1.476562 2.585938 -1.351562 C 2.585938 -1.226562 2.542969 -1.117188 2.460938 -1.027344 C 2.375 -0.9375 2.257812 -0.867188 2.101562 -0.820312 C 1.949219 -0.773438 1.765625 -0.746094 1.554688 -0.746094 C 1.34375 -0.746094 1.160156 -0.773438 1.003906 -0.820312 C 0.847656 -0.867188 0.730469 -0.9375 0.648438 -1.027344 C 0.566406 -1.117188 0.523438 -1.226562 0.523438 -1.351562 C 0.523438 -1.476562 0.566406 -1.582031 0.648438 -1.667969 C 0.730469 -1.757812 0.851562 -1.824219 1.003906 -1.871094 C 1.160156 -1.917969 1.34375 -1.941406 1.554688 -1.9375 Z M 1.554688 -1.71875 C 1.398438 -1.71875 1.265625 -1.707031 1.152344 -1.675781 C 1.039062 -1.648438 0.953125 -1.605469 0.894531 -1.550781 C 0.835938 -1.496094 0.804688 -1.429688 0.804688 -1.351562 C 0.804688 -1.273438 0.832031 -1.207031 0.894531 -1.148438 C 0.953125 -1.09375 1.039062 -1.050781 1.152344 -1.019531 C 1.265625 -0.992188 1.398438 -0.976562 1.554688 -0.972656 C 1.710938 -0.976562 1.84375 -0.992188 1.953125 -1.019531 C 2.066406 -1.050781 2.152344 -1.09375 2.210938 -1.148438 C 2.273438 -1.207031 2.300781 -1.273438 2.300781 -1.351562 C 2.300781 -1.429688 2.273438 -1.496094 2.210938 -1.550781 C 2.152344 -1.605469 2.066406 -1.648438 1.953125 -1.675781 C 1.839844 -1.707031 1.707031 -1.71875 1.554688 -1.71875 Z M 1.6875 -2.242188 L 1.417969 -2.242188 L 1.417969 -2.796875 L 1.6875 -2.796875 Z "/>
</g>
<g id="glyph-0-2">
<path d="M 1.140625 -2.265625 C 1.140625 -2.078125 1.101562 -1.902344 1.03125 -1.738281 C 0.957031 -1.574219 0.855469 -1.429688 0.722656 -1.308594 C 0.589844 -1.1875 0.4375 -1.097656 0.265625 -1.03125 L 0.117188 -1.25 C 0.273438 -1.304688 0.410156 -1.382812 0.53125 -1.488281 C 0.652344 -1.589844 0.746094 -1.710938 0.8125 -1.847656 C 0.882812 -1.980469 0.917969 -2.121094 0.917969 -2.265625 L 0.917969 -2.523438 L 1.140625 -2.523438 Z M 1.1875 -2.265625 C 1.1875 -2.128906 1.21875 -2 1.285156 -1.871094 C 1.351562 -1.746094 1.441406 -1.632812 1.554688 -1.535156 C 1.671875 -1.4375 1.808594 -1.363281 1.960938 -1.308594 L 1.820312 -1.09375 C 1.648438 -1.15625 1.496094 -1.242188 1.367188 -1.359375 C 1.238281 -1.476562 1.140625 -1.613281 1.066406 -1.769531 C 0.996094 -1.925781 0.960938 -2.089844 0.960938 -2.265625 L 0.960938 -2.523438 L 1.1875 -2.523438 Z M 1.894531 -2.402344 L 0.199219 -2.402344 L 0.199219 -2.625 L 1.894531 -2.625 Z M 2.578125 -0.960938 L 2.300781 -0.960938 L 2.300781 -2.847656 L 2.578125 -2.847656 Z M 3.050781 -1.785156 L 2.5 -1.785156 L 2.5 -2.019531 L 3.050781 -2.019531 Z M 2.578125 0.285156 L 2.300781 0.285156 L 2.300781 -0.566406 L 0.523438 -0.566406 L 0.523438 -0.792969 L 2.578125 -0.792969 Z "/>
</g>
<g id="glyph-0-3">
<path d="M 1.109375 -1.191406 L 0.835938 -1.191406 L 0.835938 -1.785156 L 1.109375 -1.785156 Z M 2.273438 -1.191406 L 2 -1.191406 L 2 -1.785156 L 2.273438 -1.785156 Z M 2.984375 -1.066406 L 0.125 -1.066406 L 0.125 -1.296875 L 2.984375 -1.296875 Z M 1.554688 -0.828125 C 1.78125 -0.828125 1.972656 -0.808594 2.136719 -0.765625 C 2.296875 -0.722656 2.417969 -0.660156 2.503906 -0.578125 C 2.589844 -0.496094 2.632812 -0.394531 2.632812 -0.273438 C 2.632812 -0.15625 2.589844 -0.0585938 2.503906 0.0234375 C 2.417969 0.105469 2.296875 0.167969 2.136719 0.214844 C 1.972656 0.257812 1.78125 0.277344 1.554688 0.277344 C 1.328125 0.277344 1.136719 0.257812 0.972656 0.214844 C 0.8125 0.171875 0.6875 0.105469 0.601562 0.0234375 C 0.515625 -0.0585938 0.472656 -0.15625 0.472656 -0.273438 C 0.472656 -0.394531 0.515625 -0.496094 0.601562 -0.578125 C 0.6875 -0.660156 0.8125 -0.722656 0.972656 -0.765625 C 1.136719 -0.808594 1.328125 -0.828125 1.554688 -0.828125 Z M 1.554688 -0.617188 C 1.386719 -0.617188 1.246094 -0.601562 1.125 -0.578125 C 1.003906 -0.550781 0.914062 -0.511719 0.851562 -0.457031 C 0.785156 -0.40625 0.753906 -0.34375 0.753906 -0.273438 C 0.753906 -0.203125 0.785156 -0.144531 0.851562 -0.09375 C 0.914062 -0.0429688 1.003906 -0.00390625 1.125 0.0234375 C 1.246094 0.0507812 1.386719 0.0625 1.554688 0.0625 C 1.71875 0.0625 1.863281 0.0507812 1.984375 0.0234375 C 2.105469 -0.00390625 2.195312 -0.0429688 2.261719 -0.09375 C 2.324219 -0.144531 2.355469 -0.203125 2.355469 -0.273438 C 2.355469 -0.34375 2.324219 -0.40625 2.261719 -0.457031 C 2.195312 -0.507812 2.105469 -0.550781 1.984375 -0.578125 C 1.863281 -0.605469 1.722656 -0.617188 1.554688 -0.617188 Z M 1.554688 -2.789062 C 1.78125 -2.789062 1.980469 -2.765625 2.144531 -2.71875 C 2.3125 -2.671875 2.4375 -2.609375 2.527344 -2.519531 C 2.617188 -2.433594 2.660156 -2.328125 2.660156 -2.207031 C 2.660156 -2.085938 2.617188 -1.984375 2.527344 -1.898438 C 2.4375 -1.808594 2.3125 -1.742188 2.144531 -1.699219 C 1.980469 -1.652344 1.78125 -1.628906 1.554688 -1.628906 C 1.328125 -1.628906 1.128906 -1.652344 0.960938 -1.699219 C 0.796875 -1.742188 0.667969 -1.808594 0.578125 -1.898438 C 0.488281 -1.984375 0.445312 -2.085938 0.445312 -2.207031 C 0.445312 -2.328125 0.488281 -2.433594 0.578125 -2.519531 C 0.667969 -2.605469 0.796875 -2.675781 0.960938 -2.71875 C 1.128906 -2.765625 1.328125 -2.789062 1.554688 -2.789062 Z M 1.554688 -2.570312 C 1.386719 -2.570312 1.238281 -2.554688 1.113281 -2.527344 C 0.988281 -2.496094 0.894531 -2.457031 0.828125 -2.402344 C 0.761719 -2.347656 0.730469 -2.28125 0.730469 -2.207031 C 0.730469 -2.132812 0.761719 -2.066406 0.828125 -2.011719 C 0.894531 -1.957031 0.988281 -1.917969 1.113281 -1.886719 C 1.238281 -1.859375 1.386719 -1.84375 1.554688 -1.84375 C 1.722656 -1.84375 1.871094 -1.859375 1.992188 -1.886719 C 2.117188 -1.917969 2.210938 -1.960938 2.28125 -2.011719 C 2.347656 -2.066406 2.378906 -2.132812 2.378906 -2.207031 C 2.378906 -2.28125 2.347656 -2.347656 2.28125 -2.402344 C 2.214844 -2.457031 2.117188 -2.496094 1.992188 -2.527344 C 1.871094 -2.554688 1.722656 -2.570312 1.554688 -2.570312 Z "/>
</g>
</g>
</defs>
<g fill="rgb(5.882353%, 9.019608%, 16.470588%)" fill-opacity="1">
<use xlink:href="#glyph-0-0" x="30" y="23.4375"/>
<use xlink:href="#glyph-0-1" x="33" y="23.4375"/>
<use xlink:href="#glyph-0-2" x="36" y="23.4375"/>
<use xlink:href="#glyph-0-3" x="39" y="23.4375"/>
</g>
</svg>
